<svg width="19" height="25" viewBox="0 0 19 25" fill="none" xmlns="http://www.w3.org/2000/svg">
<path id="Vector" d="M18.0178 22.0414L16.4885 7.57582C16.4428 7.3147 16.2635 7.10662 16.0385 7.10662H12.7531V5.64393C12.7531 2.61451 11.3135 0.578613 9.15313 0.578613C6.99277 0.578613 5.55313 2.61451 5.55313 5.64393V7.10662H1.99885C1.77385 7.10662 1.59455 7.3147 1.54885 7.57582L0.0195675 22.0414C-0.0700815 22.7717 0.154918 23.555 0.559207 24.0773C0.963505 24.6526 1.59457 24.9647 2.22385 24.9647H15.7697C16.399 24.9647 17.0301 24.6505 17.4344 24.0773C17.8826 23.5571 18.1076 22.7737 18.018 22.0414H18.0178ZM6.45322 5.69471C6.45322 3.81381 7.17394 1.67388 9.15322 1.67388C11.1325 1.67388 11.8532 3.8159 11.8532 5.69471V7.1574H6.45322V5.69471ZM16.8032 23.3997C16.5325 23.7139 16.1739 23.9219 15.8136 23.9219H2.22403C1.81973 23.9219 1.45939 23.7139 1.23439 23.3997C1.00939 23.0856 0.874037 22.6163 0.919739 22.1472L2.40334 8.20178H15.6324L17.1178 22.1983C17.1635 22.6165 17.0282 23.0857 16.8032 23.3999L16.8032 23.3997Z" fill="black"/>
</svg>
