<svg width="142" height="25" viewBox="0 0 142 25" fill="none" xmlns="http://www.w3.org/2000/svg">
<g id="Stars">
<path id="Star 1" d="M11.6945 0.6306L14.3138 8.77063H22.7902L15.9327 13.8014L18.552 21.9415L11.6945 16.9107L4.837 21.9415L7.45633 13.8014L0.59884 8.77063H9.07517L11.6945 0.6306Z" fill="#56B280"/>
<path id="Star 2" d="M40.0729 0.6306L42.6922 8.77063H51.1686L44.3111 13.8014L46.9304 21.9415L40.0729 16.9107L33.2154 21.9415L35.8348 13.8014L28.9773 8.77063H37.4536L40.0729 0.6306Z" fill="#56B280"/>
<path id="Star 3" d="M68.4513 0.6306L71.0707 8.77063H79.547L72.6895 13.8014L75.3088 21.9415L68.4513 16.9107L61.5938 21.9415L64.2132 13.8014L57.3557 8.77063H65.832L68.4513 0.6306Z" fill="#56B280"/>
<path id="Star 4" d="M96.8298 0.6306L99.4491 8.77063H107.925L101.068 13.8014L103.687 21.9415L96.8298 16.9107L89.9723 21.9415L92.5916 13.8014L85.7341 8.77063H94.2104L96.8298 0.6306Z" fill="#56B280"/>
<path id="Star 5" d="M130.253 0.6306L132.872 8.77063H141.349L134.491 13.8014L137.111 21.9415L130.253 16.9107L123.396 21.9415L126.015 13.8014L119.157 8.77063H127.634L130.253 0.6306Z" fill="#5BC08A"/>
</g>
</svg>
