<svg width="143" height="25" viewBox="0 0 143 25" fill="none" xmlns="http://www.w3.org/2000/svg">
<g id="Stars">
<path id="Star 1" d="M12.2775 0.6306L14.8968 8.77063H23.3732L16.5157 13.8014L19.135 21.9415L12.2775 16.9107L5.42001 21.9415L8.03934 13.8014L1.18185 8.77063H9.65818L12.2775 0.6306Z" fill="#56B280"/>
<path id="Star 2" d="M40.6559 0.6306L43.2753 8.77063H51.7516L44.8941 13.8014L47.5134 21.9415L40.6559 16.9107L33.7984 21.9415L36.4178 13.8014L29.5603 8.77063H38.0366L40.6559 0.6306Z" fill="#56B280"/>
<path id="Star 3" d="M69.0343 0.6306L71.6537 8.77063H80.13L73.2725 13.8014L75.8918 21.9415L69.0343 16.9107L62.1768 21.9415L64.7962 13.8014L57.9387 8.77063H66.415L69.0343 0.6306Z" fill="#56B280"/>
<path id="Star 4" d="M97.4128 0.6306L100.032 8.77063H108.508L101.651 13.8014L104.27 21.9415L97.4128 16.9107L90.5553 21.9415L93.1746 13.8014L86.3171 8.77063H94.7934L97.4128 0.6306Z" fill="#56B280"/>
<g id="Star 5">
<path d="M130.836 0.6306L133.455 8.77063H141.932L135.074 13.8014L137.694 21.9415L130.836 16.9107L123.979 21.9415L126.598 13.8014L119.74 8.77063H128.217L130.836 0.6306Z" fill="#5BC08A"/>
<path d="M130.836 0.6306L133.455 8.77063H141.932L135.074 13.8014L137.694 21.9415L130.836 16.9107L123.979 21.9415L126.598 13.8014L119.74 8.77063H128.217L130.836 0.6306Z" fill="url(#paint0_linear_431_376)"/>
</g>
</g>
<defs>
<linearGradient id="paint0_linear_431_376" x1="133.805" y1="15.3561" x2="110.469" y2="13.4301" gradientUnits="userSpaceOnUse">
<stop stop-color="white"/>
<stop offset="1" stop-color="white" stop-opacity="0"/>
</linearGradient>
</defs>
</svg>
